<svg width="46" height="46" viewBox="0 0 46 46" fill="none" xmlns="http://www.w3.org/2000/svg">
<g clip-path="url(#clip0)">
<path d="M35.3355 0H10.6644C5.28963 0 1.09626 4.64699 1.65177 9.98766L4.55345 37.8836C5.03331 42.4958 8.92444 46 13.5662 46H21.6523V35.1718C21.6523 34.4282 22.2557 33.8255 23 33.8255C23.7443 33.8255 24.3476 34.4282 24.3476 35.1718V46H32.4338C37.0755 46 40.9667 42.4958 41.4464 37.8836L44.3481 9.98766C44.9037 4.64699 40.7103 0 35.3355 0V0ZM38.2878 14.7509L30.9446 23.1832C30.6885 23.4771 30.3178 23.6459 29.9278 23.6459H16.0721C15.6821 23.6459 15.3113 23.4772 15.0554 23.1832L7.71218 14.7509C7.27095 14.2443 7.27095 13.4903 7.71218 12.9836C11.7839 8.30794 17.2132 5.73302 23 5.73302C28.7867 5.73302 34.2161 8.30803 38.2878 12.9837C38.729 13.4903 38.729 14.2443 38.2878 14.7509Z" fill="url(#paint0_linear)"/>
<path d="M33.0346 11.7777L31.8654 13.1616C31.5989 13.481 31.2156 13.6459 30.8296 13.6459C30.5253 13.6459 30.2194 13.5435 29.9673 13.3337C29.3957 12.8576 29.3185 12.0086 29.7951 11.4375L30.7039 10.3273C28.7117 9.2906 26.5669 8.66223 24.3476 8.48102V10.1391C24.3476 10.8826 23.7443 11.4854 23 11.4854C22.2557 11.4854 21.6523 10.8826 21.6523 10.1391V8.48102C19.4331 8.66223 17.2883 9.2906 15.296 10.3272L16.2047 11.4374C16.6814 12.0086 16.6042 12.8575 16.0326 13.3336C15.7806 13.5434 15.4746 13.6458 15.1703 13.6458C14.7842 13.6458 14.401 13.4809 14.1345 13.1615L12.9608 11.7808C12.1117 12.4035 11.3011 13.1081 10.5368 13.892L16.6859 20.9532H20.2747L22.3911 16.3735C22.6308 15.8548 23.3689 15.8548 23.6086 16.3735L25.725 20.9532H29.3139L35.4629 13.892C34.6977 13.1069 33.8855 12.4012 33.0346 11.7777Z" fill="url(#paint1_linear)"/>
</g>
<defs>
<linearGradient id="paint0_linear" x1="22.9999" y1="0" x2="22.9999" y2="46" gradientUnits="userSpaceOnUse">
<stop stop-color="#6D437B"/>
<stop offset="1" stop-color="#332743"/>
</linearGradient>
<linearGradient id="paint1_linear" x1="22.9999" y1="8.48102" x2="22.9999" y2="20.9532" gradientUnits="userSpaceOnUse">
<stop stop-color="#6D437B"/>
<stop offset="1" stop-color="#332743"/>
</linearGradient>
<clipPath id="clip0">
<rect width="46" height="46" fill="white"/>
</clipPath>
</defs>
</svg>
