<svg width="54" height="54" viewBox="0 0 54 54" fill="none" xmlns="http://www.w3.org/2000/svg">
<path d="M17.145 37.0478L17.9381 36.1566C17.3587 34.3047 17.3571 32.2658 17.9761 30.3832C13.4177 32.8876 7.6468 31.8896 4.20187 27.8151C1.6432 29.8443 0 32.9799 0 36.492V52.3123C0 53.1856 0.70875 53.8943 1.58203 53.8943H14.6159C14.4397 53.3997 14.3437 52.8671 14.3437 52.3123V44.4021C14.3437 41.6895 15.3383 39.077 17.145 37.0478Z" fill="url(#paint0_linear)"/>
<path d="M12.6562 28.5818C17.0249 28.5818 20.5664 25.0403 20.5664 20.6717C20.5664 16.303 17.0249 12.7615 12.6562 12.7615C8.28759 12.7615 4.74609 16.303 4.74609 20.6717C4.74609 25.0403 8.28759 28.5818 12.6562 28.5818Z" fill="url(#paint1_linear)"/>
<path d="M49.7981 27.8151C46.347 31.897 40.572 32.884 36.0239 30.3822C36.6419 32.2686 36.642 34.3021 36.0619 36.1566L36.855 37.0478C38.6617 39.077 39.6562 41.6895 39.6562 44.4021V52.3123C39.6562 52.8671 39.5603 53.3997 39.3841 53.8943H52.418C53.2912 53.8943 54 53.1856 54 52.3123V36.492C54 32.9799 52.3568 29.8443 49.7981 27.8151Z" fill="url(#paint2_linear)"/>
<path d="M41.3438 28.5818C45.7124 28.5818 49.2539 25.0403 49.2539 20.6717C49.2539 16.303 45.7124 12.7615 41.3438 12.7615C36.9751 12.7615 33.4336 16.303 33.4336 20.6717C33.4336 25.0403 36.9751 28.5818 41.3438 28.5818Z" fill="url(#paint3_linear)"/>
<path d="M27 42.8201C23.9583 42.8201 21.2467 41.3826 19.5086 39.1509C18.264 40.5494 17.5078 42.3888 17.5078 44.4022V52.3123C17.5078 53.1856 18.2166 53.8944 19.0898 53.8944H34.9102C35.7834 53.8944 36.4922 53.1856 36.4922 52.3123V44.4022C36.4922 42.3888 35.736 40.5494 34.4914 39.1509C32.7533 41.3826 30.0417 42.8201 27 42.8201Z" fill="url(#paint4_linear)"/>
<path d="M27 39.656C30.4949 39.656 33.3281 36.8228 33.3281 33.3279C33.3281 29.8329 30.4949 26.9998 27 26.9998C23.5051 26.9998 20.6719 29.8329 20.6719 33.3279C20.6719 36.8228 23.5051 39.656 27 39.656Z" fill="url(#paint5_linear)"/>
<path d="M22.4985 12.8664C24.3047 14.5357 26.0953 15.6444 26.1706 15.6908C26.6793 16.0038 27.3206 16.0038 27.8293 15.6908C27.9047 15.6444 29.6951 14.5357 31.5014 12.8664C34.1132 10.4526 35.4375 8.10602 35.4375 5.89192C35.4375 0.863589 30.4372 -1.4967 27 1.29664C23.5551 -1.50292 18.5625 0.876878 18.5625 5.89192C18.5625 8.10602 19.8868 10.4526 22.4985 12.8664Z" fill="url(#paint6_linear)"/>
<defs>
<linearGradient id="paint0_linear" x1="8.98805" y1="27.8151" x2="8.98805" y2="53.8943" gradientUnits="userSpaceOnUse">
<stop stop-color="#6D437B"/>
<stop offset="1" stop-color="#332743"/>
</linearGradient>
<linearGradient id="paint1_linear" x1="12.6562" y1="12.7615" x2="12.6563" y2="28.5818" gradientUnits="userSpaceOnUse">
<stop stop-color="#6D437B"/>
<stop offset="1" stop-color="#332743"/>
</linearGradient>
<linearGradient id="paint2_linear" x1="45.0119" y1="27.8151" x2="45.0119" y2="53.8943" gradientUnits="userSpaceOnUse">
<stop stop-color="#6D437B"/>
<stop offset="1" stop-color="#332743"/>
</linearGradient>
<linearGradient id="paint3_linear" x1="41.3438" y1="12.7615" x2="41.3438" y2="28.5818" gradientUnits="userSpaceOnUse">
<stop stop-color="#6D437B"/>
<stop offset="1" stop-color="#332743"/>
</linearGradient>
<linearGradient id="paint4_linear" x1="27" y1="39.1509" x2="27" y2="53.8944" gradientUnits="userSpaceOnUse">
<stop stop-color="#6D437B"/>
<stop offset="1" stop-color="#332743"/>
</linearGradient>
<linearGradient id="paint5_linear" x1="27" y1="26.9998" x2="27" y2="39.656" gradientUnits="userSpaceOnUse">
<stop stop-color="#6D437B"/>
<stop offset="1" stop-color="#332743"/>
</linearGradient>
<linearGradient id="paint6_linear" x1="27" y1="0.105713" x2="27" y2="15.9256" gradientUnits="userSpaceOnUse">
<stop stop-color="#6D437B"/>
<stop offset="1" stop-color="#332743"/>
</linearGradient>
</defs>
</svg>
