<svg width="68" height="68" viewBox="0 0 68 68" fill="none" xmlns="http://www.w3.org/2000/svg">
<path d="M67.6912 32.9347C67.574 32.7496 64.7579 28.3495 59.2124 23.9406C54.5599 20.2417 47.0943 15.904 37.1171 15.134C46.1115 16.6359 52.9922 24.5233 52.9922 34C52.9922 43.4767 46.1115 51.364 37.1169 52.866C47.0942 52.0961 54.5597 47.7583 59.2123 44.0593C64.7577 39.6505 67.5739 35.2504 67.691 35.0653C68.1029 34.4148 68.1029 33.5852 67.6912 32.9347Z" fill="url(#paint0_linear)"/>
<path d="M15.0078 34C15.0078 24.5233 21.8884 16.6359 30.883 15.134C20.9057 15.9039 13.4402 20.2417 8.78766 23.9406C3.24221 28.3495 0.426052 32.7496 0.308911 32.9347C-0.102808 33.5852 -0.102808 34.4148 0.308911 35.0653C0.426052 35.2504 3.24221 39.6505 8.78766 44.0593C13.4402 47.7583 20.9057 52.0959 30.883 52.866C21.8884 51.364 15.0078 43.4767 15.0078 34Z" fill="url(#paint1_linear)"/>
<path d="M49.0036 33.6388C49.0944 37.4849 47.3508 40.5437 44.7962 43.0168C42.9913 44.7642 39.5083 46.3334 36.3378 46.3867C32.1757 46.4568 28.8587 45.4747 26.516 41.519C25.3505 39.551 24.8046 37.1285 25.3405 34.3278C26.4007 28.7881 31.7965 27.9048 33.9995 27.9048C35.873 27.9048 37.4849 28.674 38.8724 30.2425C39.9331 31.4649 40.2154 33.2497 40.0901 34.3947C39.9452 35.7196 39.3275 36.8263 38.0087 37.6127C37.1366 38.1327 36.1296 38.3825 35.1143 38.3825H34.0474C33.4088 38.3825 32.8477 37.9022 32.8071 37.265C32.763 36.5715 33.3155 35.9921 34 35.9921C35.1083 35.9921 36.6403 35.6001 36.6403 34.0735C36.6403 32.4605 35.0122 31.9911 33.9177 32.0084C31.1257 32.0522 29.1282 33.6864 29.1948 36.4786C29.2812 40.0982 31.9694 42.3671 36.1196 42.3671C41.1094 42.3671 44.4673 38.6763 44.4919 34.0895C44.5072 31.242 43.798 29.1954 42.1135 27.2424C41.7018 26.7391 38.8702 23.5078 34 23.5078C28.973 23.5078 22.6605 26.1693 21.4094 33.6719C20.7307 37.7425 21.5082 41.5192 23.6354 44.8303C23.6439 44.8437 18.9922 40.9351 18.9922 33.9999C18.9922 25.6492 25.8472 18.8701 34.2258 18.9939C42.2483 19.1123 48.8142 25.6176 49.0036 33.6388Z" fill="url(#paint2_linear)"/>
<defs>
<linearGradient id="paint0_linear" x1="52.5584" y1="15.134" x2="52.5584" y2="52.866" gradientUnits="userSpaceOnUse">
<stop stop-color="#6D437B"/>
<stop offset="1" stop-color="#332743"/>
</linearGradient>
<linearGradient id="paint1_linear" x1="15.4416" y1="15.134" x2="15.4416" y2="52.866" gradientUnits="userSpaceOnUse">
<stop stop-color="#6D437B"/>
<stop offset="1" stop-color="#332743"/>
</linearGradient>
<linearGradient id="paint2_linear" x1="33.9996" y1="18.9922" x2="33.9996" y2="46.3901" gradientUnits="userSpaceOnUse">
<stop stop-color="#6D437B"/>
<stop offset="1" stop-color="#332743"/>
</linearGradient>
</defs>
</svg>
