<svg width="62" height="62" viewBox="0 0 62 62" fill="none" xmlns="http://www.w3.org/2000/svg">
<g clip-path="url(#clip0)">
<path d="M31.9493 12.3904C18.272 12.3904 7.14453 23.5179 7.14453 37.1953C7.14453 50.8727 18.272 62 31.9493 62C45.6266 62 56.754 50.8726 56.754 37.1953C56.754 23.518 45.6267 12.3904 31.9493 12.3904ZM31.9493 58.3672C20.2751 58.3672 10.7773 48.8695 10.7773 37.1953C10.7773 25.5211 20.2751 16.0234 31.9493 16.0234C43.6234 16.0234 53.1212 25.5211 53.1212 37.1953C53.1212 48.8695 43.6235 58.3672 31.9493 58.3672Z" fill="url(#paint0_linear)"/>
<path d="M42.7818 41.8081C42.0204 41.155 40.8736 41.2427 40.2206 42.0043C38.1465 44.4223 35.1317 45.8091 31.9493 45.8091C28.767 45.8091 25.7523 44.4224 23.6782 42.0044C23.025 41.2429 21.8784 41.1553 21.1169 41.8083C20.3555 42.4615 20.2677 43.6083 20.9209 44.3696C23.6859 47.5931 27.7058 49.442 31.9494 49.442C36.1931 49.442 40.2129 47.5931 42.978 44.3693C43.631 43.608 43.5433 42.4613 42.7818 41.8081Z" fill="url(#paint1_linear)"/>
<path d="M21.8654 34.3383C22.8686 34.3383 23.6818 33.525 23.6818 32.5219C23.6818 31.9395 24.1557 31.4657 24.738 31.4657C25.3203 31.4657 25.7942 31.9395 25.7942 32.5219C25.7942 33.525 26.6074 34.3383 27.6106 34.3383C28.6137 34.3383 29.427 33.525 29.427 32.5219C29.427 29.9364 27.3235 27.8329 24.738 27.8329C22.1525 27.8329 20.049 29.9364 20.049 32.5219C20.049 33.5252 20.8623 34.3383 21.8654 34.3383Z" fill="url(#paint2_linear)"/>
<path d="M39.1606 27.833C36.5752 27.833 34.4716 29.9365 34.4716 32.522C34.4716 33.5251 35.2849 34.3384 36.288 34.3384C37.2912 34.3384 38.1044 33.5251 38.1044 32.522C38.1044 31.9397 38.5783 31.4658 39.1606 31.4658C39.743 31.4658 40.2168 31.9397 40.2168 32.522C40.2168 33.5251 41.0301 34.3384 42.0332 34.3384C43.0364 34.3384 43.8496 33.5251 43.8496 32.522C43.8496 29.9364 41.7461 27.833 39.1606 27.833Z" fill="url(#paint3_linear)"/>
<path d="M46.9141 10.2035H49.564C50.5672 10.2035 51.3804 9.39023 51.3804 8.38709C51.3804 7.38394 50.5672 6.57068 49.564 6.57068H46.9141C45.911 6.57068 45.0977 7.38394 45.0977 8.38709C45.0977 9.39023 45.911 10.2035 46.9141 10.2035Z" fill="url(#paint4_linear)"/>
<path d="M53.5489 16.774C54.552 16.774 55.3653 15.9608 55.3653 14.9576V12.3077C55.3653 11.3046 54.552 10.4913 53.5489 10.4913C52.5457 10.4913 51.7325 11.3046 51.7325 12.3077V14.9576C51.7325 15.9609 52.5457 16.774 53.5489 16.774Z" fill="url(#paint5_linear)"/>
<path d="M60.1836 6.57068H57.5337C56.5306 6.57068 55.7173 7.38394 55.7173 8.38709C55.7173 9.39023 56.5306 10.2035 57.5337 10.2035H60.1836C61.1867 10.2035 62 9.39023 62 8.38709C62 7.38394 61.1867 6.57068 60.1836 6.57068Z" fill="url(#paint6_linear)"/>
<path d="M53.5489 6.28271C54.552 6.28271 55.3653 5.46944 55.3653 4.4663V1.81641C55.3653 0.813266 54.552 0 53.5489 0C52.5457 0 51.7325 0.813266 51.7325 1.81641V4.4663C51.7325 5.46944 52.5457 6.28271 53.5489 6.28271Z" fill="url(#paint7_linear)"/>
<path d="M3.93191 8.99255H1.81641C0.813266 8.99255 0 9.80582 0 10.809C0 11.8121 0.813266 12.6254 1.81641 12.6254H3.93191C4.93505 12.6254 5.74832 11.8121 5.74832 10.809C5.74832 9.80582 4.93505 8.99255 3.93191 8.99255Z" fill="url(#paint8_linear)"/>
<path d="M9.53515 16.6601V14.5446C9.53515 13.5414 8.72189 12.7281 7.71875 12.7281C6.71561 12.7281 5.90234 13.5414 5.90234 14.5446V16.6601C5.90234 17.6632 6.71561 18.4765 7.71875 18.4765C8.72189 18.4765 9.53515 17.6632 9.53515 16.6601Z" fill="url(#paint9_linear)"/>
<path d="M11.5055 12.6254H13.621C14.6241 12.6254 15.4374 11.8121 15.4374 10.809C15.4374 9.80582 14.6241 8.99255 13.621 8.99255H11.5055C10.5023 8.99255 9.68907 9.80582 9.68907 10.809C9.68907 11.8121 10.5023 12.6254 11.5055 12.6254Z" fill="url(#paint10_linear)"/>
<path d="M7.71875 8.88974C8.72189 8.88974 9.53515 8.07647 9.53515 7.07333V4.95782C9.53515 3.95468 8.72189 3.14142 7.71875 3.14142C6.71561 3.14142 5.90234 3.95468 5.90234 4.95782V7.07333C5.90234 8.07647 6.71561 8.88974 7.71875 8.88974Z" fill="url(#paint11_linear)"/>
</g>
<defs>
<linearGradient id="paint0_linear" x1="31.9493" y1="12.3904" x2="31.9493" y2="62" gradientUnits="userSpaceOnUse">
<stop stop-color="#6D437B"/>
<stop offset="1" stop-color="#332743"/>
</linearGradient>
<linearGradient id="paint1_linear" x1="31.9494" y1="41.3704" x2="31.9494" y2="49.442" gradientUnits="userSpaceOnUse">
<stop stop-color="#6D437B"/>
<stop offset="1" stop-color="#332743"/>
</linearGradient>
<linearGradient id="paint2_linear" x1="24.738" y1="27.8329" x2="24.738" y2="34.3383" gradientUnits="userSpaceOnUse">
<stop stop-color="#6D437B"/>
<stop offset="1" stop-color="#332743"/>
</linearGradient>
<linearGradient id="paint3_linear" x1="39.1606" y1="27.833" x2="39.1606" y2="34.3384" gradientUnits="userSpaceOnUse">
<stop stop-color="#6D437B"/>
<stop offset="1" stop-color="#332743"/>
</linearGradient>
<linearGradient id="paint4_linear" x1="48.2391" y1="6.57068" x2="48.2391" y2="10.2035" gradientUnits="userSpaceOnUse">
<stop stop-color="#6D437B"/>
<stop offset="1" stop-color="#332743"/>
</linearGradient>
<linearGradient id="paint5_linear" x1="53.5489" y1="10.4913" x2="53.5489" y2="16.774" gradientUnits="userSpaceOnUse">
<stop stop-color="#6D437B"/>
<stop offset="1" stop-color="#332743"/>
</linearGradient>
<linearGradient id="paint6_linear" x1="58.8586" y1="6.57068" x2="58.8586" y2="10.2035" gradientUnits="userSpaceOnUse">
<stop stop-color="#6D437B"/>
<stop offset="1" stop-color="#332743"/>
</linearGradient>
<linearGradient id="paint7_linear" x1="53.5489" y1="0" x2="53.5489" y2="6.28271" gradientUnits="userSpaceOnUse">
<stop stop-color="#6D437B"/>
<stop offset="1" stop-color="#332743"/>
</linearGradient>
<linearGradient id="paint8_linear" x1="2.87416" y1="8.99255" x2="2.87416" y2="12.6254" gradientUnits="userSpaceOnUse">
<stop stop-color="#6D437B"/>
<stop offset="1" stop-color="#332743"/>
</linearGradient>
<linearGradient id="paint9_linear" x1="7.71875" y1="12.7281" x2="7.71875" y2="18.4765" gradientUnits="userSpaceOnUse">
<stop stop-color="#6D437B"/>
<stop offset="1" stop-color="#332743"/>
</linearGradient>
<linearGradient id="paint10_linear" x1="12.5632" y1="8.99255" x2="12.5632" y2="12.6254" gradientUnits="userSpaceOnUse">
<stop stop-color="#6D437B"/>
<stop offset="1" stop-color="#332743"/>
</linearGradient>
<linearGradient id="paint11_linear" x1="7.71875" y1="3.14142" x2="7.71875" y2="8.88974" gradientUnits="userSpaceOnUse">
<stop stop-color="#6D437B"/>
<stop offset="1" stop-color="#332743"/>
</linearGradient>
<clipPath id="clip0">
<rect width="62" height="62" fill="white"/>
</clipPath>
</defs>
</svg>
