<svg width="55" height="55" viewBox="0 0 55 55" fill="none" xmlns="http://www.w3.org/2000/svg">
<path d="M50.1364 29.9472C48.9528 28.7636 47.0339 28.7636 45.8504 29.9472L37.6468 38.1508C36.4658 39.3318 34.8957 39.9821 33.2256 39.9821H25.0912V36.7595H33.2256C34.8962 36.7595 36.2554 35.4002 36.2554 33.7296C36.2553 32.0588 34.8961 30.6998 33.2255 30.6998H17.058L3.97601 43.7818L15.1942 55L20.7203 49.4739L37.7563 46.6134L50.1364 34.2333C51.32 33.0497 51.32 31.1308 50.1364 29.9472Z" fill="url(#paint0_linear)"/>
<path d="M6.38217 12.1924C6.38217 12.1924 8.46702 19.4988 14.2985 22.8656C16.4058 24.0823 18.7144 24.6178 20.8033 24.8058C17.8565 22.9735 15.5295 20.6668 14.0358 18.0798C12.9613 16.2189 12.2293 14.0563 11.8594 11.6988C11.622 11.6913 11.3874 11.6865 11.1594 11.6865C8.39998 11.6866 6.38217 12.1924 6.38217 12.1924Z" fill="url(#paint1_linear)"/>
<path d="M48.6179 12.1924C48.6179 12.1924 46.5996 11.6865 43.8405 11.6865C43.6124 11.6865 43.3779 11.6914 43.1405 11.6989C42.7707 14.0564 42.0386 16.219 40.9642 18.0798C39.4706 20.6669 37.1434 22.9737 34.1966 24.8059C36.2855 24.6179 38.5939 24.0826 40.7015 22.8657C46.533 19.4988 48.6179 12.1924 48.6179 12.1924Z" fill="url(#paint2_linear)"/>
<path d="M36.0077 12.1924C36.0077 15.1789 35.1479 18.3396 33.5128 21.3991C35.227 20.1921 36.9571 18.5747 38.1731 16.4683C41.5401 10.6369 39.6924 3.26691 39.6924 3.26691C39.6924 3.26691 37.3479 3.93604 34.7031 5.57605C35.562 7.80333 36.0077 10.043 36.0077 12.1924Z" fill="url(#paint3_linear)"/>
<path d="M16.8268 16.4684C18.0429 18.5747 19.773 20.1921 21.4871 21.3992C19.852 18.3397 18.9922 15.1789 18.9922 12.1925C18.9922 10.0431 19.4379 7.80344 20.2969 5.57615C17.6521 3.93604 15.3076 3.26691 15.3076 3.26691C15.3076 3.26691 13.46 10.6369 16.8268 16.4684Z" fill="url(#paint4_linear)"/>
<path d="M22.215 12.1924C22.215 18.926 27.5 24.3848 27.5 24.3848C27.5 24.3848 32.7852 18.926 32.7852 12.1924C32.7852 5.45875 27.5 0 27.5 0C27.5 0 22.215 5.45875 22.215 12.1924Z" fill="url(#paint5_linear)"/>
<defs>
<linearGradient id="paint0_linear" x1="27.5" y1="29.0595" x2="27.5" y2="55" gradientUnits="userSpaceOnUse">
<stop stop-color="#6D437B"/>
<stop offset="1" stop-color="#332743"/>
</linearGradient>
<linearGradient id="paint1_linear" x1="13.5928" y1="11.6865" x2="13.5928" y2="24.8058" gradientUnits="userSpaceOnUse">
<stop stop-color="#6D437B"/>
<stop offset="1" stop-color="#332743"/>
</linearGradient>
<linearGradient id="paint2_linear" x1="41.4072" y1="11.6865" x2="41.4072" y2="24.8059" gradientUnits="userSpaceOnUse">
<stop stop-color="#6D437B"/>
<stop offset="1" stop-color="#332743"/>
</linearGradient>
<linearGradient id="paint3_linear" x1="36.8556" y1="3.26691" x2="36.8556" y2="21.3991" gradientUnits="userSpaceOnUse">
<stop stop-color="#6D437B"/>
<stop offset="1" stop-color="#332743"/>
</linearGradient>
<linearGradient id="paint4_linear" x1="18.1444" y1="3.26691" x2="18.1444" y2="21.3992" gradientUnits="userSpaceOnUse">
<stop stop-color="#6D437B"/>
<stop offset="1" stop-color="#332743"/>
</linearGradient>
<linearGradient id="paint5_linear" x1="27.5001" y1="0" x2="27.5001" y2="24.3848" gradientUnits="userSpaceOnUse">
<stop stop-color="#6D437B"/>
<stop offset="1" stop-color="#332743"/>
</linearGradient>
</defs>
</svg>
