<svg width="52" height="52" viewBox="0 0 52 52" fill="none" xmlns="http://www.w3.org/2000/svg">
<path d="M51.1315 32.9346H0.868355C0.389997 32.9346 0.00172424 33.3219 0.00172424 33.8012C0.00172424 43.8357 8.1652 52 18.2005 52H33.7994C43.8339 52 51.9982 43.8357 51.9982 33.8012C51.9982 33.3219 51.6108 32.9346 51.1315 32.9346Z" fill="url(#paint0_linear)"/>
<path d="M44.2022 12.1413C44.2022 12.078 44.2013 12.0147 44.1953 11.9185C44.0619 10.4817 43.074 9.30138 41.7697 8.85857L42.7507 7.87758C44.4519 6.21115 44.6226 3.54544 43.1337 1.66319C41.5392 -0.27452 38.6655 -0.55016 36.7286 1.04356C36.6185 1.13456 36.512 1.23074 36.4053 1.33738L35.3394 2.41891C34.8922 1.12156 33.7093 0.140566 32.2517 0.0053861C30.3322 -0.0994262 28.7073 1.37373 28.6042 3.28199C28.6008 3.34526 28.5998 3.40854 28.5998 3.47089V4.79943C28.0903 4.50389 27.5001 4.33407 26.8701 4.33316C26.8078 4.33316 26.7436 4.33489 26.6474 4.34007C24.7946 4.51252 23.3691 6.10451 23.4003 7.9503V9.12893C22.8803 8.82821 22.2875 8.66703 21.6705 8.66611C21.6082 8.66611 21.5449 8.66784 21.4487 8.67302C19.595 8.84547 18.1695 10.4375 18.2007 12.2834V25.1352C18.2007 25.6144 18.5889 26.0018 19.0673 26.0018H33.7996C35.7113 26.0018 37.2661 24.4471 37.2651 22.5371C37.2651 21.9062 37.0961 21.3143 36.7998 20.8039H37.9706C39.832 20.855 41.424 19.4087 41.5982 17.522C41.6355 16.8166 41.4586 16.1493 41.1242 15.5826C41.9024 15.496 42.6225 15.1519 43.1841 14.5921C43.8391 13.9386 44.2013 13.0685 44.2022 12.1413ZM41.9603 13.3649C41.6327 13.6907 41.1985 13.8702 40.7349 13.8702C40.734 13.8702 40.7332 13.8702 40.7323 13.8702H38.1325C37.6532 13.8702 37.2658 14.2584 37.2658 14.7368C37.2658 15.2152 37.6532 15.6034 38.1325 15.6034L38.2278 15.6061C39.1828 15.6572 39.9177 16.4752 39.8692 17.3956C39.7808 18.3506 38.9706 19.0899 37.9852 19.0698H33.7995C33.3203 19.0698 32.9329 19.4581 32.9329 19.9365C32.9329 20.4148 33.3203 20.8031 33.7995 20.8031C34.7554 20.8031 35.5328 21.5805 35.5328 22.5364C35.5328 23.4923 34.7554 24.2696 33.7995 24.2696H19.9337V12.2686C19.9173 11.3093 20.6539 10.4886 21.5751 10.4019L21.6695 10.3993C22.6237 10.4001 23.3992 11.1766 23.4002 12.1299V12.136C23.4002 12.6143 23.7875 13.0026 24.2659 13.0026C24.2668 13.0026 24.2668 13.0026 24.2668 13.0026C24.7451 13.0026 25.1325 12.6153 25.1334 12.1369V12.1361V7.93557C25.117 6.97622 25.8536 6.15559 26.7748 6.06886L26.8684 6.06622C27.8234 6.06794 28.599 6.84439 28.5999 7.79857V7.80375C28.5999 8.2821 28.9873 8.67038 29.4657 8.67038C29.4666 8.67038 29.4666 8.67038 29.4666 8.67038C29.9449 8.67038 30.3323 8.28302 30.3332 7.80466V7.80375V3.47079L30.3358 3.37461C30.3861 2.42044 31.1851 1.68563 32.1246 1.73327C33.0813 1.82254 33.817 2.64316 33.7988 3.61897V4.33824C33.7988 4.68924 34.0112 5.00642 34.337 5.13987C34.6603 5.27332 35.0364 5.19705 35.2824 4.94578L37.6335 2.55998C37.6976 2.49671 37.7635 2.43689 37.832 2.38062C39.0313 1.39445 40.8087 1.56599 41.7863 2.75153C42.7118 3.92315 42.6052 5.59395 41.5324 6.64523L39.2532 8.92439C39.0054 9.1722 38.9309 9.54483 39.0651 9.86902C39.1986 10.1923 39.5158 10.4037 39.8658 10.4037H40.5851C40.6033 10.4037 40.6163 10.4037 40.631 10.4037C41.5774 10.4037 42.3815 11.1335 42.4664 12.0451L42.4691 12.1405C42.4681 12.6032 42.2879 13.0382 41.9603 13.3649Z" fill="url(#paint1_linear)"/>
<path d="M37.5205 5.45524L13.256 29.7198L14.4815 30.9453L38.746 6.68076L37.5205 5.45524Z" fill="url(#paint2_linear)"/>
<path d="M33.7978 6.94159H32.0645V11.2746H33.7978V6.94159Z" fill="url(#paint3_linear)"/>
<path d="M28.5981 11.2746H26.8649V16.4743H28.5981V11.2746Z" fill="url(#paint4_linear)"/>
<path d="M23.3984 15.599H21.6652V21.6652H23.3984V15.599Z" fill="url(#paint5_linear)"/>
<path d="M37.2641 10.408H32.9311V12.1412H37.2641V10.408Z" fill="url(#paint6_linear)"/>
<path d="M32.9312 15.599H27.7315V17.3322H32.9312V15.599Z" fill="url(#paint7_linear)"/>
<path d="M28.598 20.7986H22.5318V22.5319H28.598V20.7986Z" fill="url(#paint8_linear)"/>
<path d="M16.177 4.009C16.1761 4.00727 16.1743 4.00554 16.1735 4.00382C14.9507 2.17265 12.4653 1.67519 10.635 2.898C10.5778 2.93528 10.5215 2.97509 10.4574 3.02282L10.1454 3.26028L9.84556 3.04446C8.25967 1.5652 5.76641 1.62502 4.25679 3.19182C3.51762 3.95791 3.12072 4.96663 3.14062 6.03171C3.16053 7.0968 3.59298 8.08987 4.35825 8.82823C4.58098 9.04314 4.82879 9.23204 5.0957 9.38977L5.82542 9.96004V10.4038C5.82542 12.793 7.76922 14.7368 10.1585 14.7368C12.5477 14.7368 14.4915 12.7921 14.4906 10.403V9.95923L15.2576 9.36042C16.917 8.10115 17.32 5.75008 16.177 4.009ZM14.2002 7.9876L13.091 8.85423C12.8813 9.01805 12.7582 9.27023 12.7582 9.53714V10.4038C12.7582 11.8371 11.5917 13.0036 10.1584 13.0036C8.72502 13.0036 7.55858 11.8371 7.55858 10.4038V9.53714C7.55858 9.27023 7.4364 9.01805 7.22576 8.85423L6.1165 7.9876C6.08359 7.9616 6.04805 7.93824 6.01169 7.91742C5.84878 7.82469 5.69796 7.71206 5.56278 7.58115C5.12952 7.16342 4.88506 6.60188 4.87378 6.00043C4.86251 5.39898 5.08696 4.82881 5.50469 4.39544C5.94577 3.9379 6.53595 3.70735 7.12694 3.70735C7.69021 3.70735 8.25438 3.91617 8.6912 4.33826C8.72066 4.36599 8.75184 4.3929 8.78566 4.41707L9.65229 5.04107C9.96083 5.2638 10.3794 5.25862 10.6827 5.02807L11.5962 4.3409C12.0988 4.00463 12.7011 3.88682 13.2939 4.00382C13.8849 4.12163 14.3953 4.46227 14.7307 4.96317C15.3737 5.94589 15.1449 7.27006 14.2002 7.9876Z" fill="url(#paint9_linear)"/>
<path d="M20.7986 0.866638H19.0654V2.5998H20.7986V0.866638Z" fill="url(#paint10_linear)"/>
<path d="M25.9982 28.5981H24.2651V30.3312H25.9982V28.5981Z" fill="url(#paint11_linear)"/>
<path d="M46.7986 5.20404V6.9373C47.7545 6.9373 48.5318 7.71466 48.5318 8.67046C48.5318 9.62627 47.7545 10.4037 46.7986 10.4037V12.1369C48.7103 12.1369 50.265 10.5822 50.265 8.67046C50.265 6.75876 48.7103 5.20404 46.7986 5.20404Z" fill="url(#paint12_linear)"/>
<path d="M3.46642 13.0078H1.73326V14.741H3.46642V13.0078Z" fill="url(#paint13_linear)"/>
<path d="M1.73488 9.54138H0.00172424V11.2746H1.73488V9.54138Z" fill="url(#paint14_linear)"/>
<path d="M33.7994 27.7349C31.8877 27.7349 30.333 29.2896 30.333 31.2013H32.0663C32.0663 30.2454 32.8436 29.4681 33.7994 29.4681C34.7553 29.4681 35.5327 30.2454 35.5327 31.2013H37.2659C37.2659 29.2896 35.7111 27.7349 33.7994 27.7349Z" fill="url(#paint15_linear)"/>
<path d="M10.4011 19.9355H10.2919C9.90537 18.4423 8.54739 17.3357 6.93468 17.3357C5.32197 17.3357 3.96307 18.4423 3.57743 19.9355H3.46825C1.55655 19.9355 0.00183105 21.4902 0.00183105 23.4019C0.00183105 25.3136 1.55655 26.8683 3.46825 26.8683H10.4011C12.3128 26.8683 13.8675 25.3136 13.8675 23.4019C13.8675 21.4902 12.3128 19.9355 10.4011 19.9355ZM10.4011 25.136H3.46815C2.51225 25.136 1.73489 24.3586 1.73489 23.4028C1.73489 22.4469 2.51225 21.6696 3.46815 21.6696H4.33478C4.81314 21.6696 5.20141 21.2813 5.20141 20.8029C5.20141 19.847 5.97877 19.0698 6.93468 19.0698C7.89058 19.0698 8.66794 19.8471 8.66794 20.8029C8.66794 21.2813 9.05621 21.6696 9.53457 21.6696H10.4012C11.3571 21.6696 12.1345 22.4469 12.1345 23.4028C12.1343 24.3587 11.3569 25.136 10.4011 25.136Z" fill="url(#paint16_linear)"/>
<path d="M8.66783 25.1351H5.20141C4.72305 25.1351 4.33478 25.5234 4.33478 26.0018V29.4682C4.33478 29.9474 4.72305 30.3348 5.20141 30.3348H8.66783C9.14619 30.3348 9.53446 29.9474 9.53446 29.4682V26.0018C9.53446 25.5234 9.14619 25.1351 8.66783 25.1351ZM7.8012 28.6015H6.06804V26.8684H7.8013V28.6015H7.8012Z" fill="url(#paint17_linear)"/>
<path d="M45.932 22.5354C44.4986 22.5354 43.3322 23.7018 43.3322 25.1352C43.3322 26.5685 44.4986 27.735 45.932 27.735C47.3653 27.735 48.5318 26.5685 48.5318 25.1352C48.5318 23.7018 47.3653 22.5354 45.932 22.5354ZM45.932 26.0026C45.4536 26.0026 45.0653 25.6136 45.0653 25.136C45.0653 24.6585 45.4536 24.2694 45.932 24.2694C46.4103 24.2694 46.7986 24.6576 46.7986 25.136C46.7986 25.6145 46.4103 26.0026 45.932 26.0026Z" fill="url(#paint18_linear)"/>
<path d="M45.932 19.069C42.5877 19.069 39.8657 21.7901 39.8657 25.1352C39.8657 28.4803 42.5877 31.2014 45.932 31.2014C49.2762 31.2014 51.9982 28.4803 51.9982 25.1352C51.9982 21.7901 49.2762 19.069 45.932 19.069ZM45.932 29.4691C43.5427 29.4691 41.5989 27.5244 41.5989 25.136C41.5989 22.7467 43.5427 20.8029 45.932 20.8029C48.3212 20.8029 50.265 22.7467 50.265 25.136C50.265 27.5253 48.3212 29.4691 45.932 29.4691Z" fill="url(#paint19_linear)"/>
<defs>
<linearGradient id="paint0_linear" x1="25.9999" y1="32.9346" x2="25.9999" y2="52" gradientUnits="userSpaceOnUse">
<stop stop-color="#6D437B"/>
<stop offset="1" stop-color="#332743"/>
</linearGradient>
<linearGradient id="paint1_linear" x1="31.2012" y1="0.00012207" x2="31.2012" y2="26.0018" gradientUnits="userSpaceOnUse">
<stop stop-color="#6D437B"/>
<stop offset="1" stop-color="#332743"/>
</linearGradient>
<linearGradient id="paint2_linear" x1="25.3882" y1="17.5875" x2="26.6137" y2="18.813" gradientUnits="userSpaceOnUse">
<stop stop-color="#6D437B"/>
<stop offset="1" stop-color="#332743"/>
</linearGradient>
<linearGradient id="paint3_linear" x1="32.9312" y1="6.94159" x2="32.9312" y2="11.2746" gradientUnits="userSpaceOnUse">
<stop stop-color="#6D437B"/>
<stop offset="1" stop-color="#332743"/>
</linearGradient>
<linearGradient id="paint4_linear" x1="27.7315" y1="11.2746" x2="27.7315" y2="16.4743" gradientUnits="userSpaceOnUse">
<stop stop-color="#6D437B"/>
<stop offset="1" stop-color="#332743"/>
</linearGradient>
<linearGradient id="paint5_linear" x1="22.5318" y1="15.599" x2="22.5318" y2="21.6652" gradientUnits="userSpaceOnUse">
<stop stop-color="#6D437B"/>
<stop offset="1" stop-color="#332743"/>
</linearGradient>
<linearGradient id="paint6_linear" x1="35.0976" y1="10.408" x2="35.0976" y2="12.1412" gradientUnits="userSpaceOnUse">
<stop stop-color="#6D437B"/>
<stop offset="1" stop-color="#332743"/>
</linearGradient>
<linearGradient id="paint7_linear" x1="30.3313" y1="15.599" x2="30.3313" y2="17.3322" gradientUnits="userSpaceOnUse">
<stop stop-color="#6D437B"/>
<stop offset="1" stop-color="#332743"/>
</linearGradient>
<linearGradient id="paint8_linear" x1="25.5649" y1="20.7986" x2="25.5649" y2="22.5319" gradientUnits="userSpaceOnUse">
<stop stop-color="#6D437B"/>
<stop offset="1" stop-color="#332743"/>
</linearGradient>
<linearGradient id="paint9_linear" x1="9.98308" y1="1.97455" x2="9.98308" y2="14.7368" gradientUnits="userSpaceOnUse">
<stop stop-color="#6D437B"/>
<stop offset="1" stop-color="#332743"/>
</linearGradient>
<linearGradient id="paint10_linear" x1="19.932" y1="0.866638" x2="19.932" y2="2.5998" gradientUnits="userSpaceOnUse">
<stop stop-color="#6D437B"/>
<stop offset="1" stop-color="#332743"/>
</linearGradient>
<linearGradient id="paint11_linear" x1="25.1316" y1="28.5981" x2="25.1316" y2="30.3312" gradientUnits="userSpaceOnUse">
<stop stop-color="#6D437B"/>
<stop offset="1" stop-color="#332743"/>
</linearGradient>
<linearGradient id="paint12_linear" x1="48.5318" y1="5.20404" x2="48.5318" y2="12.1369" gradientUnits="userSpaceOnUse">
<stop stop-color="#6D437B"/>
<stop offset="1" stop-color="#332743"/>
</linearGradient>
<linearGradient id="paint13_linear" x1="2.59984" y1="13.0078" x2="2.59984" y2="14.741" gradientUnits="userSpaceOnUse">
<stop stop-color="#6D437B"/>
<stop offset="1" stop-color="#332743"/>
</linearGradient>
<linearGradient id="paint14_linear" x1="0.868305" y1="9.54138" x2="0.868305" y2="11.2746" gradientUnits="userSpaceOnUse">
<stop stop-color="#6D437B"/>
<stop offset="1" stop-color="#332743"/>
</linearGradient>
<linearGradient id="paint15_linear" x1="33.7994" y1="27.7349" x2="33.7994" y2="31.2013" gradientUnits="userSpaceOnUse">
<stop stop-color="#6D437B"/>
<stop offset="1" stop-color="#332743"/>
</linearGradient>
<linearGradient id="paint16_linear" x1="6.93468" y1="17.3357" x2="6.93468" y2="26.8683" gradientUnits="userSpaceOnUse">
<stop stop-color="#6D437B"/>
<stop offset="1" stop-color="#332743"/>
</linearGradient>
<linearGradient id="paint17_linear" x1="6.93462" y1="25.1351" x2="6.93462" y2="30.3348" gradientUnits="userSpaceOnUse">
<stop stop-color="#6D437B"/>
<stop offset="1" stop-color="#332743"/>
</linearGradient>
<linearGradient id="paint18_linear" x1="45.932" y1="22.5354" x2="45.932" y2="27.735" gradientUnits="userSpaceOnUse">
<stop stop-color="#6D437B"/>
<stop offset="1" stop-color="#332743"/>
</linearGradient>
<linearGradient id="paint19_linear" x1="45.932" y1="19.069" x2="45.932" y2="31.2014" gradientUnits="userSpaceOnUse">
<stop stop-color="#6D437B"/>
<stop offset="1" stop-color="#332743"/>
</linearGradient>
</defs>
</svg>
