<svg width="57" height="57" viewBox="0 0 57 57" fill="none" xmlns="http://www.w3.org/2000/svg">
<path d="M49.3584 46.4105C49.1997 46.2889 49.0143 46.207 48.8176 46.1714C48.6209 46.1357 48.4186 46.1475 48.2273 46.2056L35.8744 49.8394C35.7938 49.8649 35.7095 49.8769 35.625 49.875H28.5C28.3467 49.8768 28.1958 49.8368 28.0636 49.7592L20.048 45.3061C19.8771 45.2092 19.743 45.0586 19.6666 44.8776C19.5902 44.6967 19.5758 44.4955 19.6255 44.3055C19.6753 44.1155 19.7866 43.9472 19.9419 43.827C20.0972 43.7067 20.2879 43.6412 20.4844 43.6406H32.0625V42.2245L30.7355 40.8975L17.7234 38.2969H12.638L8.90625 39.7931V49.875H11.5781C11.6747 49.8767 11.7706 49.8917 11.8631 49.9195L22.4081 53.4375H35.4736L49.02 48.6548C49.2393 48.5766 49.4334 48.4403 49.5814 48.2605C49.7295 48.0808 49.826 47.8642 49.8607 47.6339C49.8954 47.4036 49.8671 47.1682 49.7786 46.9528C49.6902 46.7374 49.545 46.5499 49.3584 46.4105Z" fill="url(#paint0_linear)"/>
<path d="M3.5625 52.3865L7.125 51.7898V37.2726L3.5625 36.6759V52.3865Z" fill="url(#paint1_linear)"/>
<path d="M28.5 33.8437C35.3756 33.8437 40.9688 26.2529 40.9688 16.9218V6.91922L28.5 3.59363L16.0312 6.91922V16.9218C16.0312 26.2529 21.6244 33.8437 28.5 33.8437ZM20.4844 20.4843V16.9218C20.4844 16.4494 20.672 15.9963 21.0061 15.6623C21.3401 15.3282 21.7932 15.1406 22.2656 15.1406H24.9375V12.4687C24.9375 11.9963 25.1252 11.5432 25.4592 11.2092C25.7933 10.8751 26.2463 10.6875 26.7188 10.6875H30.2812C30.7537 10.6875 31.2067 10.8751 31.5408 11.2092C31.8748 11.5432 32.0625 11.9963 32.0625 12.4687V15.1406H34.7344C35.2068 15.1406 35.6599 15.3282 35.9939 15.6623C36.328 15.9963 36.5156 16.4494 36.5156 16.9218V20.4843C36.5156 20.9567 36.328 21.4098 35.9939 21.7439C35.6599 22.0779 35.2068 22.2656 34.7344 22.2656H32.0625V24.9375C32.0625 25.4099 31.8748 25.8629 31.5408 26.197C31.2067 26.531 30.7537 26.7187 30.2812 26.7187H26.7188C26.2463 26.7187 25.7933 26.531 25.4592 26.197C25.1252 25.8629 24.9375 25.4099 24.9375 24.9375V22.2656H22.2656C21.7932 22.2656 21.3401 22.0779 21.0061 21.7439C20.672 21.4098 20.4844 20.9567 20.4844 20.4843Z" fill="url(#paint2_linear)"/>
<path d="M46.3125 7.125H48.0938V5.34375H49.875V3.5625H48.0938V1.78125H46.3125V3.5625H44.5312V5.34375H46.3125V7.125Z" fill="url(#paint3_linear)"/>
<path d="M55.2188 8.90625H53.4375V7.125H51.6562V8.90625H49.875V10.6875H51.6562V12.4688H53.4375V10.6875H55.2188V8.90625Z" fill="url(#paint4_linear)"/>
<path d="M40.9688 31.1719V32.9531H42.75V34.7344H44.5312V32.9531H46.3125V31.1719H44.5312V29.3906H42.75V31.1719H40.9688Z" fill="url(#paint5_linear)"/>
<path d="M49.875 24.0469H48.0938V25.8281H46.3125V27.6094H48.0938V29.3906H49.875V27.6094H51.6562V25.8281H49.875V24.0469Z" fill="url(#paint6_linear)"/>
<path d="M8.90625 7.125H10.6875V5.34375H12.4688V3.5625H10.6875V1.78125H8.90625V3.5625H7.125V5.34375H8.90625V7.125Z" fill="url(#paint7_linear)"/>
<path d="M3.5625 12.4688H5.34375V10.6875H7.125V8.90625H5.34375V7.125H3.5625V8.90625H1.78125V10.6875H3.5625V12.4688Z" fill="url(#paint8_linear)"/>
<path d="M12.4688 29.3906V31.1719H10.6875V32.9531H12.4688V34.7344H14.25V32.9531H16.0312V31.1719H14.25V29.3906H12.4688Z" fill="url(#paint9_linear)"/>
<path d="M8.90625 29.3906V27.6094H10.6875V25.8281H8.90625V24.0469H7.125V25.8281H5.34375V27.6094H7.125V29.3906H8.90625Z" fill="url(#paint10_linear)"/>
<path d="M26.7188 22.2656V24.9375H30.2812V22.2656C30.2812 21.7932 30.4689 21.3401 30.803 21.0061C31.137 20.672 31.5901 20.4844 32.0625 20.4844H34.7344V16.9219H32.0625C31.5901 16.9219 31.137 16.7342 30.803 16.4002C30.4689 16.0661 30.2812 15.613 30.2812 15.1406V12.4688H26.7188V15.1406C26.7188 15.613 26.5311 16.0661 26.197 16.4002C25.863 16.7342 25.4099 16.9219 24.9375 16.9219H22.2656V20.4844H24.9375C25.4099 20.4844 25.863 20.672 26.197 21.0061C26.5311 21.3401 26.7188 21.7932 26.7188 22.2656Z" fill="url(#paint11_linear)"/>
<defs>
<linearGradient id="paint0_linear" x1="29.3907" y1="38.2969" x2="29.3907" y2="53.4375" gradientUnits="userSpaceOnUse">
<stop stop-color="#6D437B"/>
<stop offset="1" stop-color="#332743"/>
</linearGradient>
<linearGradient id="paint1_linear" x1="5.34375" y1="36.6759" x2="5.34375" y2="52.3865" gradientUnits="userSpaceOnUse">
<stop stop-color="#6D437B"/>
<stop offset="1" stop-color="#332743"/>
</linearGradient>
<linearGradient id="paint2_linear" x1="28.5" y1="3.59363" x2="28.5" y2="33.8437" gradientUnits="userSpaceOnUse">
<stop stop-color="#6D437B"/>
<stop offset="1" stop-color="#332743"/>
</linearGradient>
<linearGradient id="paint3_linear" x1="47.2031" y1="1.78125" x2="47.2031" y2="7.125" gradientUnits="userSpaceOnUse">
<stop stop-color="#6D437B"/>
<stop offset="1" stop-color="#332743"/>
</linearGradient>
<linearGradient id="paint4_linear" x1="52.5469" y1="7.125" x2="52.5469" y2="12.4688" gradientUnits="userSpaceOnUse">
<stop stop-color="#6D437B"/>
<stop offset="1" stop-color="#332743"/>
</linearGradient>
<linearGradient id="paint5_linear" x1="43.6406" y1="29.3906" x2="43.6406" y2="34.7344" gradientUnits="userSpaceOnUse">
<stop stop-color="#6D437B"/>
<stop offset="1" stop-color="#332743"/>
</linearGradient>
<linearGradient id="paint6_linear" x1="48.9844" y1="24.0469" x2="48.9844" y2="29.3906" gradientUnits="userSpaceOnUse">
<stop stop-color="#6D437B"/>
<stop offset="1" stop-color="#332743"/>
</linearGradient>
<linearGradient id="paint7_linear" x1="9.79688" y1="1.78125" x2="9.79688" y2="7.125" gradientUnits="userSpaceOnUse">
<stop stop-color="#6D437B"/>
<stop offset="1" stop-color="#332743"/>
</linearGradient>
<linearGradient id="paint8_linear" x1="4.45312" y1="7.125" x2="4.45312" y2="12.4688" gradientUnits="userSpaceOnUse">
<stop stop-color="#6D437B"/>
<stop offset="1" stop-color="#332743"/>
</linearGradient>
<linearGradient id="paint9_linear" x1="13.3594" y1="29.3906" x2="13.3594" y2="34.7344" gradientUnits="userSpaceOnUse">
<stop stop-color="#6D437B"/>
<stop offset="1" stop-color="#332743"/>
</linearGradient>
<linearGradient id="paint10_linear" x1="8.01562" y1="24.0469" x2="8.01562" y2="29.3906" gradientUnits="userSpaceOnUse">
<stop stop-color="#6D437B"/>
<stop offset="1" stop-color="#332743"/>
</linearGradient>
<linearGradient id="paint11_linear" x1="28.5" y1="12.4688" x2="28.5" y2="24.9375" gradientUnits="userSpaceOnUse">
<stop stop-color="#6D437B"/>
<stop offset="1" stop-color="#332743"/>
</linearGradient>
</defs>
</svg>
